# xmcd
#
# Track frame offsets: 
#        150
#        14960
#        29852
#        52670
#        69226
#        92812
#        110895
#        123590
#        140244
#        156727
#        181112
#        194994
#        207367
#        223620
#        236829
#        248741
#        267974
#
# Disc length: 3858 seconds
#
# Revision: 1
# Processed by: cddbd v1.5.2PL0 Copyright (c) Steve Scherf et al.
# Submitted via: ExactAudioCopyFreeDBPlugin 1.0
#
DISCID=180f1011
DTITLE=Johnny cash - Unchained in a Rusty Cage - Live in New York 1996
DYEAR=2015
DGENRE=Country
TTITLE0=Folsom Prison Blues
TTITLE1=Get Rhythm
TTITLE2=Sunday Morning Coming Down
TTITLE3=(Ghost Riders) in the Sky
TTITLE4=Oh Bury Me Not (Introduction A Cowboy's Prayer)
TTITLE5=I Never Picked Cotton
TTITLE6=Unchained
TTITLE7=Rowboat
TTITLE8=Rusty Cage
TTITLE9=Southern Accents
TTITLE10=Memories Are Made of This
TTITLE11=Ring of Fire
TTITLE12=I Walk the Line
TTITLE13=Big River
TTITLE14=I Still Miss Someone
TTITLE15=Orange Blossom Special
TTITLE16=Farside Banks of Jordan
EXTD=
EXTT0=
EXTT1=
EXTT2=
EXTT3=
EXTT4=
EXTT5=
EXTT6=
EXTT7=
EXTT8=
EXTT9=
EXTT10=
EXTT11=
EXTT12=
EXTT13=
EXTT14=
EXTT15=
EXTT16=
PLAYORDER=
